HIERARCHY
ROOT Hips
{
	OFFSET 0.000000 0.000000 0.000000
	CHANNELS 6 Xposition Yposition Zposition Xrotation Yrotation Zrotation
	JOINT Spine
	{
		OFFSET 0.000000 0.044490 0.066735
		CHANNELS 3 Xrotation Yrotation Zrotation
		JOINT Spine1
		{
			OFFSET 0.000000 0.015451 0.087628
			CHANNELS 3 Xrotation Yrotation Zrotation
			JOINT Spine2
			{
				OFFSET 0.000000 0.007755 0.088641
				CHANNELS 3 Xrotation Yrotation Zrotation
				JOINT Spine3
				{
					OFFSET 0.000000 0.000000 0.088980
					CHANNELS 3 Xrotation Yrotation Zrotation
					JOINT Neck
					{
						OFFSET 0.000000 -0.033367 0.233572
						CHANNELS 3 Xrotation Yrotation Zrotation
						JOINT Head
						{
							OFFSET 0.000000 -0.021245 0.120488
							CHANNELS 3 Xrotation Yrotation Zrotation
							End Site
							{
								OFFSET 0.000000 0.000000 0.000000
							}
						}
					}
					JOINT RightShoulder
					{
						OFFSET -0.026917 -0.044862 0.145355
						CHANNELS 3 Xrotation Yrotation Zrotation
						JOINT RightArm
						{
							OFFSET -0.133690 0.000000 0.000000
							CHANNELS 3 Xrotation Yrotation Zrotation
							JOINT RightForeArm
							{
								OFFSET -0.257725 0.000000 0.000000
								CHANNELS 3 Xrotation Yrotation Zrotation
								JOINT RightHand
								{
									OFFSET -0.216749 0.000000 0.000000
									CHANNELS 3 Xrotation Yrotation Zrotation
									JOINT RightHandEnd
									{
										OFFSET -0.062518 0.000000 0.000000
										CHANNELS 3 Xrotation Yrotation Zrotation
										End Site
										{
											OFFSET 0.000000 0.000000 0.000000
										}
									}
									JOINT RightHandThumb1
									{
										OFFSET -0.025007 -0.041679 -0.016672
										CHANNELS 3 Xrotation Yrotation Zrotation
										End Site
										{
											OFFSET 0.000000 0.000000 0.000000
										}
									}
								}
							}
						}
					}
					JOINT LeftShoulder
					{
						OFFSET 0.026917 -0.044862 0.145355
						CHANNELS 3 Xrotation Yrotation Zrotation
						JOINT LeftArm
						{
							OFFSET 0.133690 0.000000 0.000000
							CHANNELS 3 Xrotation Yrotation Zrotation
							JOINT LeftForeArm
							{
								OFFSET 0.257725 0.000000 0.000000
								CHANNELS 3 Xrotation Yrotation Zrotation
								JOINT LeftHand
								{
									OFFSET 0.216749 0.000000 0.000000
									CHANNELS 3 Xrotation Yrotation Zrotation
									JOINT LeftHandEnd
									{
										OFFSET 0.062518 0.000000 0.000000
										CHANNELS 3 Xrotation Yrotation Zrotation
										End Site
										{
											OFFSET 0.000000 0.000000 0.000000
										}
									}
									JOINT LeftHandThumb1
									{
										OFFSET 0.025007 -0.041679 -0.016672
										CHANNELS 3 Xrotation Yrotation Zrotation
										End Site
										{
											OFFSET 0.000000 0.000000 0.000000
										}
									}
								}
							}
						}
					}
				}
			}
		}
	}
	JOINT RightUpLeg
	{
		OFFSET -0.079855 0.000000 -0.023329
		CHANNELS 3 Xrotation Yrotation Zrotation
		JOINT RightLeg
		{
			OFFSET 0.000000 0.000000 -0.366572
			CHANNELS 3 Xrotation Yrotation Zrotation
			JOINT RightFoot
			{
				OFFSET 0.000000 0.000000 -0.363650
				CHANNELS 3 Xrotation Yrotation Zrotation
				JOINT RightToeBase
				{
					OFFSET 0.000000 -0.114715 -0.041753
					CHANNELS 3 Xrotation Yrotation Zrotation
					End Site
					{
						OFFSET 0.000000 0.000000 0.000000
					}
				}
			}
		}
	}
	JOINT LeftUpLeg
	{
		OFFSET 0.079855 0.000000 -0.023329
		CHANNELS 3 Xrotation Yrotation Zrotation
		JOINT LeftLeg
		{
			OFFSET 0.000000 0.000000 -0.366572
			CHANNELS 3 Xrotation Yrotation Zrotation
			JOINT LeftFoot
			{
				OFFSET 0.000000 0.000000 -0.363650
				CHANNELS 3 Xrotation Yrotation Zrotation
				JOINT LeftToeBase
				{
					OFFSET 0.000000 -0.114715 -0.041753
					CHANNELS 3 Xrotation Yrotation Zrotation
					End Site
					{
						OFFSET 0.000000 0.000000 0.000000
					}
				}
			}
		}
	}
}
MOTION
Frames: 7
Frame Time: 0.033333
0.488495 -0.377269 0.807522 2.429800 -0.433400 -90.276000 -0.362000 -2.135700 0.028400 -0.460500 -1.063700 -0.197000 2.613100 -1.494700 -1.755000 0.437000 -0.366700 -0.014800 -9.450400 3.994800 1.190400 -1.824800 1.222700 -1.662100 -1.014700 12.783600 6.080200 -5.486900 -5.886700 -1.322300 0.000000 0.000000 0.362800 1.478900 7.498600 -8.951700 0.000000 0.000000 0.000000 0.000000 0.000000 0.000000 0.256300 -10.196700 -4.965200 -7.351100 15.646500 17.268700 0.000000 0.000000 -9.906400 -5.546200 -1.081100 4.371700 0.000000 0.000000 0.000000 0.000000 0.000000 0.000000 -4.280600 0.797300 -8.191000 9.200900 0.000000 0.000000 -7.395100 -4.100500 -8.788800 1.720200 0.000000 0.000000 -1.318600 -8.993600 29.794300 4.810100 0.000000 0.000000 -1.106900 5.419500 0.070100 -0.352000 0.000000 0.000000 
0.488706 -0.378224 0.807659 2.521200 -0.546400 -90.198600 -0.357900 -2.021600 0.022000 -0.456900 -1.008800 -0.193800 2.562100 -1.531300 -1.815900 0.428200 -0.369600 -0.004800 -9.523700 3.645500 0.965700 -1.843200 1.203900 -1.590700 -1.040600 12.544800 6.039900 -5.604400 -6.017200 -1.378900 0.000000 0.000000 0.339100 1.437400 7.532000 -8.910400 0.000000 0.000000 0.000000 0.000000 0.000000 0.000000 0.292100 -10.357000 -4.962500 -7.378100 15.496100 17.057600 0.000000 0.000000 -9.900500 -5.802400 -0.842100 4.376900 0.000000 0.000000 0.000000 0.000000 0.000000 0.000000 -4.134800 0.763700 -8.491300 8.659900 0.000000 0.000000 -7.096600 -4.261800 -8.613100 1.738400 0.000000 0.000000 -1.293200 -8.962100 29.795700 4.445800 0.000000 0.000000 -0.934100 5.507700 -0.090300 -0.234000 0.000000 0.000000 
0.489135 -0.380007 0.807910 2.646900 -0.754200 -90.025500 -0.346200 -1.835900 0.012600 -0.444800 -0.907500 -0.185900 2.436400 -1.580100 -1.913900 0.406400 -0.368700 0.008200 -9.612100 3.068400 0.575300 -1.852900 1.174300 -1.499000 -1.054600 12.176900 5.933700 -5.856700 -6.224600 -1.504800 0.000000 0.000000 0.270200 1.438800 7.524000 -8.974100 0.000000 0.000000 0.000000 0.000000 0.000000 0.000000 0.315300 -10.620300 -5.034300 -7.290500 15.291600 16.704500 0.000000 0.000000 -9.905700 -6.065600 -0.510400 4.333100 0.000000 0.000000 0.000000 0.000000 0.000000 0.000000 -3.857000 0.737100 -8.994500 7.644700 0.000000 0.000000 -6.541500 -4.557700 -8.354200 1.746600 0.000000 0.000000 -1.348000 -8.886100 29.603400 3.957000 0.000000 0.000000 -0.688500 5.645400 -0.207400 -0.083100 0.000000 0.000000 
0.489720 -0.382209 0.808172 2.750200 -1.035200 -89.809700 -0.340200 -1.636300 0.009000 -0.424800 -0.797500 -0.176000 2.219700 -1.611200 -2.000300 0.368700 -0.361100 0.017200 -9.640100 2.413300 0.125600 -1.806200 1.182600 -1.422100 -1.061800 11.762500 5.784800 -6.167400 -6.360900 -1.673800 0.000000 0.000000 0.192500 1.524100 7.549700 -9.181800 0.000000 0.000000 0.000000 0.000000 0.000000 0.000000 0.268400 -10.862100 -5.197700 -7.076400 15.058800 16.326300 0.000000 0.000000 -9.928400 -6.097200 -0.305300 4.252000 0.000000 0.000000 0.000000 0.000000 0.000000 0.000000 -3.535100 0.745500 -9.569300 6.374000 0.000000 0.000000 -5.853900 -4.927700 -8.064600 1.809700 0.000000 0.000000 -1.562600 -8.780200 29.335400 3.592000 0.000000 0.000000 -0.481000 5.766900 -0.270100 0.041800 0.000000 0.000000 
0.490291 -0.384490 0.808385 2.820700 -1.378900 -89.634800 -0.368900 -1.461800 0.014800 -0.419600 -0.716700 -0.163500 1.934200 -1.615500 -2.043300 0.322600 -0.349000 0.024600 -9.545800 1.829400 -0.288400 -1.701200 1.206200 -1.385800 -1.121100 11.318100 5.642900 -6.423900 -6.316800 -1.839300 0.000000 0.000000 0.163800 1.650800 7.677100 -9.377700 0.000000 0.000000 0.000000 0.000000 0.000000 0.000000 0.124400 -10.941300 -5.390400 -6.862000 14.692900 15.985200 0.000000 0.000000 -9.977800 -5.935400 -0.314600 4.218800 0.000000 0.000000 0.000000 0.000000 0.000000 0.000000 -3.216800 0.772200 -10.041000 4.971900 0.000000 0.000000 -5.118000 -5.336100 -7.828500 1.967400 0.000000 0.000000 -1.878700 -8.647200 29.335200 3.325400 0.000000 0.000000 -0.318300 5.790800 -0.490100 0.121400 0.000000 0.000000 
0.490718 -0.386832 0.808540 2.874500 -1.823800 -89.553600 -0.483100 -1.312100 0.026200 -0.481300 -0.686200 -0.153500 1.632200 -1.590900 -2.031600 0.285900 -0.330400 0.028100 -9.326100 1.406500 -0.617800 -1.560900 1.172700 -1.410200 -1.255500 10.833000 5.525500 -6.581300 -6.123700 -1.944300 0.000000 0.000000 0.190200 1.726200 7.845200 -9.402500 0.000000 0.000000 0.000000 0.000000 0.000000 0.000000 -0.094500 -10.819000 -5.532200 -6.735600 14.115700 15.667700 0.000000 0.000000 -10.066500 -5.821900 -0.463800 4.263300 0.000000 0.000000 0.000000 0.000000 0.000000 0.000000 -2.928600 0.788000 -10.168500 3.416400 0.000000 0.000000 -4.336800 -5.749400 -7.846600 2.155600 0.000000 0.000000 -2.198000 -8.453000 29.744400 2.920200 0.000000 0.000000 -0.127700 5.700800 -0.991100 0.175000 0.000000 0.000000 
0.490878 -0.389311 0.808606 2.875500 -2.374800 -89.576900 -0.715100 -1.180000 0.026500 -0.635500 -0.693600 -0.148900 1.373100 -1.517900 -1.968100 0.274200 -0.301100 0.018900 -9.030900 1.188300 -0.814500 -1.391200 1.068200 -1.505600 -1.414600 10.353900 5.442800 -6.661700 -5.880800 -1.971100 0.000000 0.000000 0.236000 1.706400 7.939600 -9.302800 0.000000 0.000000 0.000000 0.000000 0.000000 0.000000 -0.342900 -10.574400 -5.596300 -6.642100 13.445800 15.384800 0.000000 0.000000 -10.185600 -5.839100 -0.664600 4.311100 0.000000 0.000000 0.000000 0.000000 0.000000 0.000000 -2.683200 0.843100 -9.846200 1.741900 0.000000 0.000000 -3.539700 -6.112400 -8.219000 2.285600 0.000000 0.000000 -2.447800 -8.117100 30.310300 2.224900 0.000000 0.000000 0.137900 5.585200 -1.563500 0.225600 0.000000 0.000000 
